<svg xmlns="http://www.w3.org/2000/svg" height="20" viewBox="0 96 960 960" width="20"><path d="M233.212 663Q197 663 171.5 637.381 146 611.763 146 575.788 146 539 171.619 514q25.618-25 61.593-25 36.388 0 62.088 25.212 25.7 25.213 25.7 61.5Q321 612 295.212 637.5q-25.787 25.5-62 25.5Zm247.076 0Q444 663 418.5 637.381 393 611.763 393 575.788 393 539 418.619 514q25.618-25 61.593-25Q517 489 542 514.212q25 25.213 25 61.5Q567 612 541.788 637.5q-25.213 25.5-61.5 25.5Zm246.783 0q-36.505 0-62.288-25.619Q639 611.763 639 575.788 639 539 664.996 514q25.995-25 62.5-25Q764 489 789 514.212q25 25.213 25 61.5Q814 612 788.788 637.5 763.575 663 727.071 663Z"/></svg>