<svg xmlns="http://www.w3.org/2000/svg" height="20" viewBox="0 96 960 960" width="20"><path d="M444 1008v-98q-121-14-202.5-96T146 612H48v-72h98q14-120 95.5-202T444 242v-98h72v98q121 14 202.5 96T814 540h98v72h-98q-14 120-95.5 202T516 910v98h-72Zm36-168q110 0 187-77t77-187q0-110-77-187t-187-77q-110 0-187 77t-77 187q0 110 77 187t187 77Zm0-120q-60 0-102-42t-42-102q0-60 42-102t102-42q60 0 102 42t42 102q0 60-42 102t-102 42Zm0-65q32.588 0 55.794-23.206Q559 608.588 559 576q0-32.588-23.206-55.794Q512.588 497 480 497q-32.587 0-55.794 23.206Q401 543.412 401 576q0 32.588 23.206 55.794Q447.413 655 480 655Zm1-80Z"/></svg>