<svg xmlns="http://www.w3.org/2000/svg" height="20" viewBox="0 96 960 960" width="20"><path d="M480 754q96-78 146-152t50-138.28q0-55.381-20.052-94.443-20.053-39.063-49.398-63.292-29.345-24.229-63.581-35.107Q508.734 260 480.367 260q-28.367 0-62.753 10.878-34.386 10.878-63.86 35.107-29.473 24.229-49.614 63.292Q284 408.339 284 463.72 284 528 334 602t146 152Zm0 106Q338 755 269 657t-69-192.691q0-71.522 25-125.416Q250 285 290.5 249t90.5-54.5q50-18.5 99-18.5 50 0 99.5 18.5t90 54.5q40.5 36 65.5 89.893 25 53.894 25 125.416Q760 559 691 657T480 860Zm.124-320Q514 540 538 515.876t24-58Q562 424 537.876 400t-58-24Q446 376 422 400.124t-24 58Q398 492 422.124 516t58 24ZM200 976v-84h560v84H200Zm280-512Z"/></svg>